<svg width="18" height="20" viewBox="0 0 18 20" fill="none" xmlns="http://www.w3.org/2000/svg">
<path d="M15.6575 19.9971C15.3548 19.9963 15.0553 19.9343 14.7762 19.8149C14.4972 19.6955 14.2442 19.521 14.0318 19.3014L8.99999 14.2071L3.96824 19.3047C3.64508 19.6386 3.23065 19.8656 2.77895 19.9561C2.32726 20.0466 1.85927 19.9964 1.43599 19.8121C1.00851 19.637 0.642813 19.3347 0.386653 18.9447C0.130494 18.5546 -0.00422116 18.095 0.000100828 17.6258V4.16606C0.000100828 3.06115 0.431101 2.0015 1.19829 1.22021C1.96547 0.438923 3.006 0 4.09096 0L13.909 0C14.4462 0 14.9782 0.107758 15.4745 0.317123C15.9709 0.526487 16.4218 0.833357 16.8017 1.22021C17.1816 1.60707 17.4829 2.06633 17.6885 2.57178C17.8941 3.07723 17.9999 3.61897 17.9999 4.16606V17.6258C18.0045 18.0946 17.8702 18.554 17.6147 18.944C17.3591 19.334 16.9941 19.6365 16.5673 19.8121C16.2791 19.9349 15.9698 19.9977 15.6575 19.9971ZM4.09096 1.66643C3.43998 1.66643 2.81567 1.92978 2.35536 2.39855C1.89505 2.86733 1.63645 3.50312 1.63645 4.16606V17.6258C1.63615 17.7646 1.67627 17.9004 1.75173 18.0161C1.82719 18.1317 1.93461 18.222 2.06041 18.2755C2.18622 18.329 2.32478 18.3433 2.45858 18.3166C2.59238 18.29 2.71542 18.2235 2.81216 18.1257V18.1257L8.42727 12.4424C8.58057 12.2872 8.78794 12.2001 9.00408 12.2001C9.22023 12.2001 9.4276 12.2872 9.5809 12.4424L15.1895 18.124C15.2862 18.2219 15.4092 18.2883 15.543 18.315C15.6768 18.3416 15.8154 18.3273 15.9412 18.2738C16.067 18.2203 16.1744 18.13 16.2499 18.0144C16.3254 17.8988 16.3655 17.763 16.3652 17.6241V4.16606C16.3652 3.50312 16.1066 2.86733 15.6463 2.39855C15.186 1.92978 14.5616 1.66643 13.9107 1.66643H4.09096Z" fill="white"/>
</svg>
