<svg width="20" height="20" viewBox="0 0 20 20" fill="none" xmlns="http://www.w3.org/2000/svg">
<path d="M0.0206184 9.37203C0.140877 7.4263 0.827894 5.55829 1.99697 3.99829C3.16605 2.43829 4.76609 1.2545 6.59982 0.592868C8.43355 -0.0687678 10.4208 -0.179329 12.3166 0.274814C14.2124 0.728957 15.9339 1.72795 17.2688 3.14864C18.6037 4.56933 19.4937 6.3496 19.8291 8.26999C20.1644 10.1904 19.9305 12.1669 19.1561 13.9559C18.3816 15.745 17.1006 17.2683 15.4709 18.3381C13.8413 19.4079 11.9341 19.9774 9.98469 19.9764H4.1782C3.07588 19.9753 2.01902 19.5369 1.23956 18.7574C0.460102 17.978 0.0217191 16.9211 0.0206184 15.8188V9.37203ZM1.68365 15.8188C1.68365 16.4804 1.94647 17.1149 2.41429 17.5827C2.88211 18.0505 3.51661 18.3133 4.1782 18.3133H9.98469C11.158 18.3128 12.3181 18.065 13.3892 17.586C14.4603 17.107 15.4184 16.4077 16.2011 15.5336C16.9876 14.6599 17.5782 13.6281 17.9332 12.5075C18.2883 11.3869 18.3997 10.2033 18.2599 9.0361C18.0392 7.19507 17.2121 5.47985 15.9089 4.16085C14.6057 2.84184 12.9006 1.99407 11.0623 1.75118C10.7038 1.70623 10.3427 1.68346 9.98136 1.68299C8.04353 1.67771 6.16569 2.35478 4.67711 3.59548C3.80774 4.31802 3.09415 5.20958 2.57959 6.21611C2.06503 7.22265 1.76023 8.32319 1.68365 9.45102V15.8188Z" fill="white"/>
</svg>
