<svg width="16" height="4" viewBox="0 0 16 4" fill="none" xmlns="http://www.w3.org/2000/svg">
<path d="M2.36676 0.51756C3.18548 0.51756 3.84919 1.18127 3.84919 1.99999C3.84919 2.81871 3.18548 3.48242 2.36676 3.48242C1.54804 3.48242 0.884338 2.81871 0.884338 1.99999C0.884338 1.18127 1.54804 0.51756 2.36676 0.51756Z" fill="white"/>
<path d="M8.00001 0.51756C8.81873 0.51756 9.48244 1.18127 9.48244 1.99999C9.48244 2.81871 8.81873 3.48242 8.00001 3.48242C7.18129 3.48242 6.51758 2.81871 6.51758 1.99999C6.51758 1.18127 7.18129 0.51756 8.00001 0.51756Z" fill="white"/>
<path d="M13.6332 0.51756C14.4519 0.51756 15.1156 1.18127 15.1156 1.99999C15.1156 2.81871 14.4519 3.48242 13.6332 3.48242C12.8145 3.48242 12.1508 2.81871 12.1508 1.99999C12.1508 1.18127 12.8145 0.51756 13.6332 0.51756Z" fill="white"/>
</svg>
