<svg width="20" height="20" viewBox="0 0 20 20" fill="none" xmlns="http://www.w3.org/2000/svg">
<path d="M19.2658 0.735022C18.967 0.432628 18.5953 0.212401 18.1866 0.0956188C17.7778 -0.0211636 17.3459 -0.0305539 16.9325 0.0683551L3.59913 2.87669C2.83128 2.98199 2.10808 3.29959 1.51097 3.7937C0.91386 4.28781 0.466562 4.93882 0.219447 5.67341C-0.0276682 6.408 -0.0647845 7.19699 0.112278 7.95154C0.28934 8.70608 0.673548 9.3962 1.22163 9.94419L2.6533 11.375C2.73079 11.4525 2.79224 11.5445 2.83414 11.6457C2.87603 11.7469 2.89755 11.8555 2.89747 11.965V14.605C2.89931 14.9762 2.98476 15.3422 3.14747 15.6759L3.1408 15.6817L3.16247 15.7034C3.40665 16.1943 3.80545 16.5913 4.29747 16.8334L4.31913 16.855L4.32497 16.8484C4.6586 17.0111 5.02461 17.0965 5.3958 17.0984H8.0358C8.25668 17.0982 8.46859 17.1857 8.62497 17.3417L10.0558 18.7725C10.4396 19.1605 10.8963 19.4688 11.3998 19.6794C11.9032 19.8901 12.4434 19.9991 12.9891 20C13.4439 19.9995 13.8956 19.9252 14.3266 19.78C15.0545 19.541 15.7011 19.1034 16.1935 18.5164C16.6859 17.9295 17.0045 17.2167 17.1133 16.4584L19.9258 3.09585C20.0298 2.67889 20.0237 2.24204 19.908 1.82816C19.7923 1.41428 19.571 1.03758 19.2658 0.735022V0.735022ZM3.8333 10.1984L2.4008 8.76752C2.06723 8.44199 1.83344 8.02806 1.72687 7.57432C1.6203 7.12058 1.64537 6.64585 1.79913 6.20585C1.94821 5.75446 2.22381 5.35538 2.59313 5.05607C2.96246 4.75677 3.40998 4.56984 3.88247 4.51752L17.0833 1.73835L4.56247 14.2609V11.965C4.56373 11.637 4.49994 11.3119 4.37478 11.0087C4.24962 10.7054 4.06558 10.43 3.8333 10.1984V10.1984ZM15.4758 16.1734C15.4118 16.6336 15.2208 17.067 14.9242 17.4247C14.6276 17.7825 14.2372 18.0505 13.7967 18.1986C13.3563 18.3468 12.8833 18.3693 12.4307 18.2636C11.9782 18.1578 11.5641 17.928 11.235 17.6L9.80163 16.1667C9.57028 15.9341 9.29509 15.7496 8.99199 15.624C8.68888 15.4984 8.36389 15.4342 8.0358 15.435H5.73997L18.2625 2.91669L15.4758 16.1734Z" fill="white"/>
</svg>
