<svg width="24" height="24" viewBox="0 0 24 24" fill="none" xmlns="http://www.w3.org/2000/svg">
<path d="M17.8333 2H6.16667C5.062 2.00132 4.00296 2.44073 3.22185 3.22185C2.44073 4.00296 2.00132 5.062 2 6.16667L2 17.8333C2.00132 18.938 2.44073 19.997 3.22185 20.7782C4.00296 21.5593 5.062 21.9987 6.16667 22H17.8333C18.938 21.9987 19.997 21.5593 20.7782 20.7782C21.5593 19.997 21.9987 18.938 22 17.8333V6.16667C21.9987 5.062 21.5593 4.00296 20.7782 3.22185C19.997 2.44073 18.938 2.00132 17.8333 2V2ZM6.16667 3.66667H17.8333C18.4964 3.66667 19.1323 3.93006 19.6011 4.3989C20.0699 4.86774 20.3333 5.50363 20.3333 6.16667V17.8333C20.3319 18.2046 20.2464 18.5707 20.0833 18.9042L12.4475 11.2683C12.0606 10.8813 11.6012 10.5743 11.0956 10.3648C10.59 10.1554 10.0481 10.0476 9.50083 10.0476C8.95357 10.0476 8.41166 10.1554 7.90606 10.3648C7.40047 10.5743 6.94109 10.8813 6.55417 11.2683L3.66667 14.155V6.16667C3.66667 5.50363 3.93006 4.86774 4.3989 4.3989C4.86774 3.93006 5.50363 3.66667 6.16667 3.66667ZM6.16667 20.3333C5.50363 20.3333 4.86774 20.0699 4.3989 19.6011C3.93006 19.1323 3.66667 18.4964 3.66667 17.8333V16.5117L7.73167 12.4467C7.96383 12.2144 8.2395 12.0301 8.54292 11.9043C8.84634 11.7786 9.17156 11.7139 9.5 11.7139C9.82844 11.7139 10.1537 11.7786 10.4571 11.9043C10.7605 12.0301 11.0362 12.2144 11.2683 12.4467L18.9042 20.0833C18.5707 20.2464 18.2046 20.3319 17.8333 20.3333H6.16667Z" fill="white"/>
<path d="M15.3335 10.7497C15.9103 10.7497 16.4742 10.5786 16.9539 10.2582C17.4335 9.93767 17.8074 9.48215 18.0281 8.9492C18.2489 8.41625 18.3066 7.82981 18.1941 7.26403C18.0816 6.69825 17.8038 6.17855 17.3959 5.77065C16.988 5.36274 16.4683 5.08496 15.9025 4.97242C15.3367 4.85988 14.7503 4.91764 14.2173 5.13839C13.6844 5.35915 13.2288 5.73299 12.9084 6.21263C12.5879 6.69227 12.4168 7.25618 12.4168 7.83304C12.4168 8.60659 12.7241 9.34846 13.2711 9.89544C13.8181 10.4424 14.5599 10.7497 15.3335 10.7497ZM15.3335 6.58304C15.5807 6.58304 15.8224 6.65635 16.0279 6.79371C16.2335 6.93106 16.3937 7.12628 16.4883 7.35469C16.5829 7.5831 16.6077 7.83443 16.5595 8.07691C16.5112 8.31938 16.3922 8.54211 16.2174 8.71693C16.0425 8.89174 15.8198 9.01079 15.5773 9.05902C15.3349 9.10726 15.0835 9.0825 14.8551 8.98789C14.6267 8.89328 14.4315 8.73307 14.2941 8.52751C14.1568 8.32194 14.0835 8.08027 14.0835 7.83304C14.0835 7.50152 14.2152 7.18358 14.4496 6.94916C14.684 6.71474 15.002 6.58304 15.3335 6.58304Z" fill="white"/>
</svg>
