<svg width="14" height="14" viewBox="0 0 14 14" fill="none" xmlns="http://www.w3.org/2000/svg">
<path d="M3.59406 5.50792H2.73201V4.64588C2.73201 4.53157 2.6866 4.42193 2.60577 4.3411C2.52494 4.26027 2.41531 4.21486 2.30099 4.21486C2.18668 4.21486 2.07705 4.26027 1.99621 4.3411C1.91538 4.42193 1.86997 4.53157 1.86997 4.64588V5.50792H1.00793C0.893612 5.50792 0.78398 5.55334 0.703147 5.63417C0.622315 5.715 0.576904 5.82463 0.576904 5.93895C0.576904 6.05326 0.622315 6.16289 0.703147 6.24372C0.78398 6.32456 0.893612 6.36997 1.00793 6.36997H1.86997V7.23201C1.86997 7.34633 1.91538 7.45596 1.99621 7.53679C2.07705 7.61762 2.18668 7.66303 2.30099 7.66303C2.41531 7.66303 2.52494 7.61762 2.60577 7.53679C2.6866 7.45596 2.73201 7.34633 2.73201 7.23201V6.36997H3.59406C3.70837 6.36997 3.818 6.32456 3.89884 6.24372C3.97967 6.16289 4.02508 6.05326 4.02508 5.93895C4.02508 5.82463 3.97967 5.715 3.89884 5.63417C3.818 5.55334 3.70837 5.50792 3.59406 5.50792Z" fill="white"/>
<path d="M9.04811 6.6483C9.5294 6.6483 9.99988 6.50559 10.4001 6.23819C10.8002 5.9708 11.1121 5.59075 11.2963 5.1461C11.4805 4.70144 11.5287 4.21215 11.4348 3.74011C11.3409 3.26807 11.1091 2.83447 10.7688 2.49414C10.4285 2.15382 9.99489 1.92206 9.52285 1.82816C9.0508 1.73427 8.56152 1.78246 8.11686 1.96664C7.67221 2.15082 7.29216 2.46272 7.02476 2.8629C6.75737 3.26308 6.61465 3.73356 6.61465 4.21485C6.6153 4.86005 6.87189 5.47863 7.32811 5.93485C7.78433 6.39107 8.40291 6.64766 9.04811 6.6483ZM9.04811 2.59255C9.36897 2.59255 9.68262 2.6877 9.94941 2.86596C10.2162 3.04422 10.4241 3.29759 10.5469 3.59403C10.6697 3.89046 10.7018 4.21665 10.6392 4.53135C10.5766 4.84604 10.4221 5.13511 10.1952 5.36199C9.96836 5.58888 9.6793 5.74339 9.3646 5.80598C9.0499 5.86858 8.72371 5.83645 8.42728 5.71366C8.13084 5.59088 7.87747 5.38294 7.69921 5.11616C7.52095 4.84937 7.4258 4.53572 7.4258 4.21485C7.4258 3.78459 7.59673 3.37196 7.90097 3.06771C8.20521 2.76347 8.61784 2.59255 9.04811 2.59255Z" fill="white"/>
<path d="M9.04809 7.35748C7.88817 7.35877 6.77612 7.82012 5.95592 8.64031C5.13573 9.4605 4.67438 10.5726 4.6731 11.7325C4.6731 11.8614 4.72431 11.985 4.81547 12.0762C4.90664 12.1674 5.03028 12.2186 5.15921 12.2186C5.28813 12.2186 5.41178 12.1674 5.50294 12.0762C5.5941 11.985 5.64532 11.8614 5.64532 11.7325C5.64532 10.83 6.00382 9.9645 6.64197 9.32635C7.28011 8.68821 8.14562 8.3297 9.04809 8.3297C9.95056 8.3297 10.8161 8.68821 11.4542 9.32635C12.0924 9.9645 12.4509 10.83 12.4509 11.7325C12.4509 11.8614 12.5021 11.985 12.5932 12.0762C12.6844 12.1674 12.8081 12.2186 12.937 12.2186C13.0659 12.2186 13.1895 12.1674 13.2807 12.0762C13.3719 11.985 13.4231 11.8614 13.4231 11.7325C13.4218 10.5726 12.9605 9.4605 12.1403 8.64031C11.3201 7.82012 10.208 7.35877 9.04809 7.35748Z" fill="white"/>
</svg>
