<svg width="20" height="21" viewBox="0 0 20 21" fill="none" xmlns="http://www.w3.org/2000/svg">
<path d="M14.6666 8.01666V7.02777C14.6666 5.73852 14.175 4.50208 13.2998 3.59044C12.4246 2.67881 11.2377 2.16666 9.99998 2.16666C8.7623 2.16666 7.57532 2.67881 6.70015 3.59044C5.82498 4.50208 5.33331 5.73852 5.33331 7.02777V8.01666C4.73955 8.28659 4.23417 8.73091 3.87898 9.29528C3.52378 9.85964 3.33417 10.5196 3.33331 11.1944V15.3611C3.33437 16.2817 3.6859 17.1642 4.31079 17.8151C4.93568 18.466 5.78292 18.8322 6.66665 18.8333H13.3333C14.217 18.8322 15.0643 18.466 15.6892 17.8151C16.3141 17.1642 16.6656 16.2817 16.6666 15.3611V11.1944C16.6658 10.5196 16.4762 9.85964 16.121 9.29528C15.7658 8.73091 15.2604 8.28659 14.6666 8.01666ZM6.66665 7.02777C6.66665 6.10688 7.01784 5.2237 7.64296 4.57254C8.26808 3.92137 9.11592 3.55555 9.99998 3.55555C10.884 3.55555 11.7319 3.92137 12.357 4.57254C12.9821 5.2237 13.3333 6.10688 13.3333 7.02777V7.72221H6.66665V7.02777ZM15.3333 15.3611C15.3333 15.9136 15.1226 16.4435 14.7475 16.8342C14.3725 17.2249 13.8637 17.4444 13.3333 17.4444H6.66665C6.13621 17.4444 5.62751 17.2249 5.25243 16.8342C4.87736 16.4435 4.66665 15.9136 4.66665 15.3611V11.1944C4.66665 10.6419 4.87736 10.112 5.25243 9.7213C5.62751 9.33059 6.13621 9.1111 6.66665 9.1111H13.3333C13.8637 9.1111 14.3725 9.33059 14.7475 9.7213C15.1226 10.112 15.3333 10.6419 15.3333 11.1944V15.3611Z" fill="white"/>
<path d="M10 12.1667C9.77901 12.1667 9.56705 12.2325 9.41076 12.3497C9.25448 12.4669 9.16669 12.6259 9.16669 12.7917V14.0417C9.16669 14.2074 9.25448 14.3664 9.41076 14.4836C9.56705 14.6008 9.77901 14.6667 10 14.6667C10.221 14.6667 10.433 14.6008 10.5893 14.4836C10.7456 14.3664 10.8334 14.2074 10.8334 14.0417V12.7917C10.8334 12.6259 10.7456 12.4669 10.5893 12.3497C10.433 12.2325 10.221 12.1667 10 12.1667Z" fill="white"/>
</svg>
