<svg width="24" height="24" viewBox="0 0 24 24" fill="none" xmlns="http://www.w3.org/2000/svg">
<path d="M17.8333 22H6.16667C5.062 21.9987 4.00296 21.5593 3.22185 20.7782C2.44073 19.997 2.00132 18.938 2 17.8333L2 6.16667C2.00132 5.062 2.44073 4.00296 3.22185 3.22185C4.00296 2.44073 5.062 2.00132 6.16667 2L17.8333 2C18.938 2.00132 19.997 2.44073 20.7782 3.22185C21.5593 4.00296 21.9987 5.062 22 6.16667V17.8333C21.9987 18.938 21.5593 19.997 20.7782 20.7782C19.997 21.5593 18.938 21.9987 17.8333 22ZM6.16667 3.66667C5.50363 3.66667 4.86774 3.93006 4.3989 4.3989C3.93006 4.86774 3.66667 5.50363 3.66667 6.16667V17.8333C3.66667 18.4964 3.93006 19.1323 4.3989 19.6011C4.86774 20.0699 5.50363 20.3333 6.16667 20.3333H17.8333C18.4964 20.3333 19.1323 20.0699 19.6011 19.6011C20.0699 19.1323 20.3333 18.4964 20.3333 17.8333V6.16667C20.3333 5.50363 20.0699 4.86774 19.6011 4.3989C19.1323 3.93006 18.4964 3.66667 17.8333 3.66667H6.16667ZM9.785 16.1708C9.43761 16.1697 9.09667 16.0768 8.79667 15.9017C8.50029 15.732 8.25429 15.4867 8.08386 15.1908C7.91342 14.8949 7.82467 14.559 7.82667 14.2175V9.7825C7.82638 9.44095 7.91593 9.10534 8.08632 8.80933C8.25671 8.51332 8.50195 8.26733 8.79743 8.09603C9.09292 7.92474 9.42825 7.83416 9.7698 7.83339C10.1113 7.83263 10.4471 7.9217 10.7433 8.09167L15.1417 10.2875C15.4472 10.4524 15.703 10.6961 15.8827 10.9932C16.0624 11.2902 16.1593 11.63 16.1635 11.9772C16.1676 12.3243 16.0789 12.6663 15.9064 12.9676C15.7339 13.2689 15.484 13.5186 15.1825 13.6908L10.7025 15.93C10.4231 16.0894 10.1067 16.1724 9.785 16.1708ZM9.76417 9.50417C9.71824 9.50415 9.67312 9.51622 9.63333 9.53917C9.59011 9.5632 9.55425 9.59855 9.52959 9.64142C9.50492 9.68428 9.49239 9.73305 9.49333 9.7825V14.2175C9.49362 14.2662 9.50656 14.314 9.53091 14.3562C9.55525 14.3984 9.59015 14.4335 9.63218 14.4582C9.6742 14.4828 9.72192 14.4961 9.77062 14.4967C9.81933 14.4973 9.86736 14.4852 9.91 14.4617L14.39 12.2217C14.4234 12.1956 14.4499 12.1618 14.4673 12.1232C14.4847 12.0845 14.4925 12.0423 14.49 12C14.491 11.9504 14.4785 11.9015 14.4536 11.8586C14.4288 11.8157 14.3927 11.7805 14.3492 11.7567L9.95417 9.56083C9.89687 9.52568 9.83136 9.50614 9.76417 9.50417Z" fill="white"/>
</svg>
