<svg width="25" height="24" viewBox="0 0 25 24" fill="none" xmlns="http://www.w3.org/2000/svg">
<path d="M22.2663 20.5889L17.2962 15.6188C18.6506 13.9623 19.3165 11.8487 19.1562 9.71497C18.9959 7.58128 18.0216 5.59083 16.4349 4.15534C14.8482 2.71984 12.7704 1.94913 10.6314 2.00261C8.49233 2.05609 6.45568 2.92968 4.94268 4.44268C3.42968 5.95568 2.55609 7.99233 2.50261 10.1314C2.44913 12.2704 3.21984 14.3482 4.65534 15.9349C6.09083 17.5216 8.08128 18.4959 10.215 18.6562C12.3487 18.8165 14.4623 18.1506 16.1188 16.7962L21.0889 21.7663C21.2459 21.9179 21.4563 22.0019 21.6746 22C21.8929 21.9981 22.1017 21.9105 22.2561 21.7561C22.4105 21.6017 22.4981 21.3929 22.5 21.1746C22.5019 20.9563 22.4179 20.7459 22.2663 20.5889ZM10.8531 17.0143C9.53568 17.0143 8.24781 16.6237 7.15238 15.8917C6.05696 15.1598 5.20317 14.1194 4.699 12.9023C4.19483 11.6851 4.06292 10.3458 4.31994 9.05361C4.57697 7.76146 5.21138 6.57455 6.14297 5.64297C7.07455 4.71138 8.26146 4.07697 9.55361 3.81994C10.8458 3.56292 12.1851 3.69483 13.4023 4.199C14.6194 4.70317 15.6598 5.55696 16.3917 6.65238C17.1237 7.74781 17.5143 9.03568 17.5143 10.3531C17.5124 12.1192 16.8099 13.8123 15.5611 15.0611C14.3123 16.3099 12.6192 17.0124 10.8531 17.0143Z" fill="white"/>
</svg>
