<svg width="24" height="24" viewBox="0 0 24 24" fill="none" xmlns="http://www.w3.org/2000/svg">
<path d="M16.1667 11.1667H12.8333V7.83333C12.8333 7.61232 12.7455 7.40036 12.5893 7.24408C12.433 7.0878 12.221 7 12 7C11.779 7 11.567 7.0878 11.4107 7.24408C11.2545 7.40036 11.1667 7.61232 11.1667 7.83333V11.1667H7.83333C7.61232 11.1667 7.40036 11.2545 7.24408 11.4107C7.0878 11.567 7 11.779 7 12C7 12.221 7.0878 12.433 7.24408 12.5893C7.40036 12.7455 7.61232 12.8333 7.83333 12.8333H11.1667V16.1667C11.1667 16.3877 11.2545 16.5996 11.4107 16.7559C11.567 16.9122 11.779 17 12 17C12.221 17 12.433 16.9122 12.5893 16.7559C12.7455 16.5996 12.8333 16.3877 12.8333 16.1667V12.8333H16.1667C16.3877 12.8333 16.5996 12.7455 16.7559 12.5893C16.9122 12.433 17 12.221 17 12C17 11.779 16.9122 11.567 16.7559 11.4107C16.5996 11.2545 16.3877 11.1667 16.1667 11.1667Z" fill="white"/>
<path d="M17.8333 2H6.16667C5.062 2.00132 4.00296 2.44073 3.22185 3.22185C2.44073 4.00296 2.00132 5.062 2 6.16667L2 17.8333C2.00132 18.938 2.44073 19.997 3.22185 20.7782C4.00296 21.5593 5.062 21.9987 6.16667 22H17.8333C18.938 21.9987 19.997 21.5593 20.7782 20.7782C21.5593 19.997 21.9987 18.938 22 17.8333V6.16667C21.9987 5.062 21.5593 4.00296 20.7782 3.22185C19.997 2.44073 18.938 2.00132 17.8333 2V2ZM20.3333 17.8333C20.3333 18.4964 20.0699 19.1323 19.6011 19.6011C19.1323 20.0699 18.4964 20.3333 17.8333 20.3333H6.16667C5.50363 20.3333 4.86774 20.0699 4.3989 19.6011C3.93006 19.1323 3.66667 18.4964 3.66667 17.8333V6.16667C3.66667 5.50363 3.93006 4.86774 4.3989 4.3989C4.86774 3.93006 5.50363 3.66667 6.16667 3.66667H17.8333C18.4964 3.66667 19.1323 3.93006 19.6011 4.3989C20.0699 4.86774 20.3333 5.50363 20.3333 6.16667V17.8333Z" fill="white"/>
</svg>
