<svg width="25" height="24" viewBox="0 0 25 24" fill="none" xmlns="http://www.w3.org/2000/svg">
<path d="M20 7H17.5C17.5 5.67392 16.9732 4.40215 16.0355 3.46447C15.0979 2.52678 13.8261 2 12.5 2C11.1739 2 9.90215 2.52678 8.96447 3.46447C8.02678 4.40215 7.5 5.67392 7.5 7H5C4.33696 7 3.70107 7.26339 3.23223 7.73223C2.76339 8.20107 2.5 8.83696 2.5 9.5L2.5 17.8333C2.50132 18.938 2.94073 19.997 3.72185 20.7782C4.50296 21.5593 5.562 21.9987 6.66667 22H18.3333C19.438 21.9987 20.497 21.5593 21.2782 20.7782C22.0593 19.997 22.4987 18.938 22.5 17.8333V9.5C22.5 8.83696 22.2366 8.20107 21.7678 7.73223C21.2989 7.26339 20.663 7 20 7ZM12.5 3.66667C13.3841 3.66667 14.2319 4.01786 14.857 4.64298C15.4821 5.2681 15.8333 6.11594 15.8333 7H9.16667C9.16667 6.11594 9.51786 5.2681 10.143 4.64298C10.7681 4.01786 11.6159 3.66667 12.5 3.66667ZM20.8333 17.8333C20.8333 18.4964 20.5699 19.1323 20.1011 19.6011C19.6323 20.0699 18.9964 20.3333 18.3333 20.3333H6.66667C6.00363 20.3333 5.36774 20.0699 4.8989 19.6011C4.43006 19.1323 4.16667 18.4964 4.16667 17.8333V9.5C4.16667 9.27899 4.25446 9.06702 4.41074 8.91074C4.56702 8.75446 4.77899 8.66667 5 8.66667H7.5V10.3333C7.5 10.5543 7.5878 10.7663 7.74408 10.9226C7.90036 11.0789 8.11232 11.1667 8.33333 11.1667C8.55435 11.1667 8.76631 11.0789 8.92259 10.9226C9.07887 10.7663 9.16667 10.5543 9.16667 10.3333V8.66667H15.8333V10.3333C15.8333 10.5543 15.9211 10.7663 16.0774 10.9226C16.2337 11.0789 16.4457 11.1667 16.6667 11.1667C16.8877 11.1667 17.0996 11.0789 17.2559 10.9226C17.4122 10.7663 17.5 10.5543 17.5 10.3333V8.66667H20C20.221 8.66667 20.433 8.75446 20.5893 8.91074C20.7455 9.06702 20.8333 9.27899 20.8333 9.5V17.8333Z" fill="white"/>
</svg>
