<svg width="24" height="24" viewBox="0 0 24 24" fill="none" xmlns="http://www.w3.org/2000/svg">
<path d="M19.3289 8.63901L9.59507 2.80482C8.97405 2.35007 8.23922 2.0762 7.47206 2.01359C6.7049 1.95097 5.93538 2.10204 5.24884 2.45006C4.5623 2.79808 3.98556 3.32944 3.58257 3.98523C3.17957 4.64101 2.96608 5.3956 2.96576 6.16531V17.8337C2.9659 18.6037 3.1794 19.3587 3.58258 20.0148C3.98576 20.6709 4.56284 21.2024 5.24978 21.5504C5.93672 21.8984 6.70665 22.0493 7.47413 21.9862C8.2416 21.9232 8.97661 21.6488 9.59757 21.1933L19.3314 15.3592C19.8592 14.9721 20.2884 14.4662 20.5842 13.8823C20.8801 13.2985 21.0342 12.6532 21.0342 11.9987C21.0342 11.3442 20.8801 10.6988 20.5842 10.115C20.2884 9.53117 19.8592 9.02523 19.3314 8.63817L19.3289 8.63901ZM18.3421 14.0148L8.60825 19.849C8.23571 20.1212 7.79511 20.2851 7.33521 20.3224C6.87531 20.3597 6.41406 20.269 6.00251 20.0604C5.59096 19.8517 5.24516 19.5333 5.0034 19.1403C4.76163 18.7473 4.63332 18.2951 4.63267 17.8337V6.16531C4.62805 5.70303 4.75393 5.24883 4.99587 4.85489C5.23781 4.46095 5.58598 4.14325 6.00037 3.93832C6.35283 3.75903 6.7426 3.66537 7.13804 3.66494C7.66803 3.66697 8.18337 3.83904 8.60825 4.15585L18.3421 9.99004C18.6584 10.2223 18.9155 10.5258 19.0928 10.8759C19.2701 11.226 19.3624 11.6129 19.3624 12.0053C19.3624 12.3978 19.2701 12.7847 19.0928 13.1348C18.9155 13.4849 18.6584 13.7883 18.3421 14.0206V14.0148Z" fill="white"/>
</svg>
