<svg width="28" height="24" viewBox="0 0 28 24" fill="none" xmlns="http://www.w3.org/2000/svg">
<path d="M22.5555 17H5.44443C5.01488 17 4.66666 17.2985 4.66666 17.6667C4.66666 18.0349 5.01488 18.3333 5.44443 18.3333H22.5555C22.9851 18.3333 23.3333 18.0349 23.3333 17.6667C23.3333 17.2985 22.9851 17 22.5555 17Z" fill="white"/>
<path d="M22.5555 11.3331H5.44443C5.01488 11.3331 4.66666 11.6316 4.66666 11.9998C4.66666 12.368 5.01488 12.6665 5.44443 12.6665H22.5555C22.9851 12.6665 23.3333 12.368 23.3333 11.9998C23.3333 11.6316 22.9851 11.3331 22.5555 11.3331Z" fill="white"/>
<path d="M22.5555 5.66687H5.44443C5.01488 5.66687 4.66666 5.96535 4.66666 6.33354C4.66666 6.70172 5.01488 7.0002 5.44443 7.0002H22.5555C22.9851 7.0002 23.3333 6.70172 23.3333 6.33354C23.3333 5.96535 22.9851 5.66687 22.5555 5.66687Z" fill="white"/>
</svg>
