<svg width="24" height="24" viewBox="0 0 24 24" fill="none" xmlns="http://www.w3.org/2000/svg">
<path fill-rule="evenodd" clip-rule="evenodd" d="M6.16667 2H17.8333C18.938 2.00132 19.997 2.44073 20.7782 3.22185C21.5593 4.00296 21.9987 5.062 22 6.16667V17.8333C21.9987 18.938 21.5593 19.997 20.7782 20.7782C19.997 21.5593 18.938 21.9987 17.8333 22H6.16667C5.062 21.9987 4.00296 21.5593 3.22185 20.7782C2.44073 19.997 2.00132 18.938 2 17.8333L2 6.16667C2.00132 5.062 2.44073 4.00296 3.22185 3.22185C4.00296 2.44073 5.062 2.00132 6.16667 2ZM20.3333 8.15327V6.16667C20.3333 5.50363 20.0699 4.86774 19.6011 4.3989C19.1323 3.93006 18.4964 3.66667 17.8333 3.66667H15.9778V8.15327H20.3333ZM8.09194 3.66667H6.16667C5.50363 3.66667 4.86774 3.93006 4.3989 4.3989C3.93006 4.86774 3.66667 5.50363 3.66667 6.16667V8.15327H8.09194V3.66667ZM3.66667 15.8435V17.8333C3.66667 18.4964 3.93006 19.1323 4.3989 19.6011C4.86774 20.0699 5.50363 20.3333 6.16667 20.3333H8.09194V15.8435H3.66667ZM15.9778 20.3333H17.8333C18.4964 20.3333 19.1323 20.0699 19.6011 19.6011C20.0699 19.1323 20.3333 18.4964 20.3333 17.8333V15.8435H15.9778V20.3333ZM8.09194 9.81994H3.66667V14.1768H8.09194V9.81994ZM15.9778 9.81994H20.3333V14.1768H15.9778V9.81994ZM14.3111 8.15327V3.66667H9.75861V8.15327H14.3111ZM9.75861 9.81994V14.1768H14.3111V9.81994H9.75861ZM9.75861 15.8435V20.3333H14.3111V15.8435H9.75861Z" fill="white"/>
</svg>
