<svg width="21" height="20" viewBox="0 0 21 20" fill="none" xmlns="http://www.w3.org/2000/svg">
<path d="M20.2663 18.5889L15.2962 13.6188C16.6506 11.9623 17.3165 9.84866 17.1562 7.71497C16.9959 5.58128 16.0216 3.59083 14.4349 2.15534C12.8482 0.719841 10.7704 -0.0508742 8.63136 0.00260835C6.49233 0.0560909 4.45568 0.929679 2.94268 2.44268C1.42968 3.95568 0.556091 5.99233 0.502608 8.13136C0.449126 10.2704 1.21984 12.3482 2.65534 13.9349C4.09083 15.5216 6.08128 16.4959 8.21497 16.6562C10.3487 16.8165 12.4623 16.1506 14.1188 14.7962L19.0889 19.7663C19.2459 19.9179 19.4563 20.0019 19.6746 20C19.8929 19.9981 20.1017 19.9105 20.2561 19.7561C20.4105 19.6017 20.4981 19.3929 20.5 19.1746C20.5019 18.9563 20.4179 18.7459 20.2663 18.5889ZM8.85314 15.0143C7.53568 15.0143 6.24781 14.6237 5.15238 13.8917C4.05696 13.1598 3.20317 12.1194 2.699 10.9023C2.19483 9.6851 2.06292 8.34575 2.31994 7.05361C2.57697 5.76146 3.21138 4.57455 4.14297 3.64297C5.07455 2.71138 6.26146 2.07697 7.55361 1.81994C8.84575 1.56292 10.1851 1.69483 11.4023 2.199C12.6194 2.70317 13.6598 3.55696 14.3917 4.65238C15.1237 5.74781 15.5143 7.03568 15.5143 8.35314C15.5124 10.1192 14.8099 11.8123 13.5611 13.0611C12.3123 14.3099 10.6192 15.0124 8.85314 15.0143Z" fill="white"/>
</svg>
