<svg width="20" height="20" viewBox="0 0 20 20" fill="none" xmlns="http://www.w3.org/2000/svg">
<path d="M15.8333 0H4.16667C3.062 0.00132321 2.00296 0.440735 1.22185 1.22185C0.440735 2.00296 0.00132321 3.062 0 4.16667L0 15.8333C0.00132321 16.938 0.440735 17.997 1.22185 18.7782C2.00296 19.5593 3.062 19.9987 4.16667 20H15.8333C16.938 19.9987 17.997 19.5593 18.7782 18.7782C19.5593 17.997 19.9987 16.938 20 15.8333V4.16667C19.9987 3.062 19.5593 2.00296 18.7782 1.22185C17.997 0.440735 16.938 0.00132321 15.8333 0V0ZM4.16667 1.66667H15.8333C16.4964 1.66667 17.1323 1.93006 17.6011 2.3989C18.0699 2.86774 18.3333 3.50363 18.3333 4.16667V15.8333C18.3319 16.2046 18.2464 16.5707 18.0833 16.9042L10.4475 9.26833C10.0606 8.88131 9.6012 8.57429 9.0956 8.36483C8.59001 8.15537 8.0481 8.04756 7.50083 8.04756C6.95357 8.04756 6.41166 8.15537 5.90606 8.36483C5.40047 8.57429 4.94109 8.88131 4.55417 9.26833L1.66667 12.155V4.16667C1.66667 3.50363 1.93006 2.86774 2.3989 2.3989C2.86774 1.93006 3.50363 1.66667 4.16667 1.66667ZM4.16667 18.3333C3.50363 18.3333 2.86774 18.0699 2.3989 17.6011C1.93006 17.1323 1.66667 16.4964 1.66667 15.8333V14.5117L5.73167 10.4467C5.96383 10.2144 6.2395 10.0301 6.54292 9.90432C6.84634 9.77858 7.17156 9.71387 7.5 9.71387C7.82844 9.71387 8.15366 9.77858 8.45708 9.90432C8.7605 10.0301 9.03617 10.2144 9.26833 10.4467L16.9042 18.0833C16.5707 18.2464 16.2046 18.3319 15.8333 18.3333H4.16667Z" fill="white"/>
</svg>
