<svg width="14" height="17" viewBox="0 0 14 17" fill="none" xmlns="http://www.w3.org/2000/svg">
<path d="M11.6666 6.01666V5.02777C11.6666 3.73852 11.175 2.50208 10.2998 1.59044C9.42464 0.678808 8.23766 0.166656 6.99998 0.166656C5.7623 0.166656 4.57532 0.678808 3.70015 1.59044C2.82498 2.50208 2.33331 3.73852 2.33331 5.02777V6.01666C1.73955 6.28659 1.23417 6.73091 0.878979 7.29528C0.523783 7.85964 0.334165 8.5196 0.333313 9.19443V13.3611C0.334372 14.2817 0.685901 15.1642 1.31079 15.8151C1.93568 16.466 2.78292 16.8322 3.66665 16.8333H10.3333C11.217 16.8322 12.0643 16.466 12.6892 15.8151C13.3141 15.1642 13.6656 14.2817 13.6666 13.3611V9.19443C13.6658 8.5196 13.4762 7.85964 13.121 7.29528C12.7658 6.73091 12.2604 6.28659 11.6666 6.01666V6.01666ZM3.66665 5.02777C3.66665 4.10688 4.01784 3.2237 4.64296 2.57254C5.26808 1.92137 6.11592 1.55555 6.99998 1.55555C7.88403 1.55555 8.73188 1.92137 9.357 2.57254C9.98212 3.2237 10.3333 4.10688 10.3333 5.02777V5.72221H3.66665V5.02777ZM12.3333 13.3611C12.3333 13.9136 12.1226 14.4435 11.7475 14.8342C11.3725 15.2249 10.8637 15.4444 10.3333 15.4444H3.66665C3.13621 15.4444 2.62751 15.2249 2.25243 14.8342C1.87736 14.4435 1.66665 13.9136 1.66665 13.3611V9.19443C1.66665 8.6419 1.87736 8.112 2.25243 7.7213C2.62751 7.33059 3.13621 7.1111 3.66665 7.1111H10.3333C10.8637 7.1111 11.3725 7.33059 11.7475 7.7213C12.1226 8.112 12.3333 8.6419 12.3333 9.19443V13.3611Z" fill="white"/>
</svg>
