<svg width="20" height="20" viewBox="0 0 20 20" fill="none" xmlns="http://www.w3.org/2000/svg">
<path fill-rule="evenodd" clip-rule="evenodd" d="M4.16667 0H15.8333C16.938 0.00132321 17.997 0.440735 18.7782 1.22185C19.5593 2.00296 19.9987 3.062 20 4.16667V15.8333C19.9987 16.938 19.5593 17.997 18.7782 18.7782C17.997 19.5593 16.938 19.9987 15.8333 20H4.16667C3.062 19.9987 2.00296 19.5593 1.22185 18.7782C0.440735 17.997 0.00132321 16.938 0 15.8333L0 4.16667C0.00132321 3.062 0.440735 2.00296 1.22185 1.22185C2.00296 0.440735 3.062 0.00132321 4.16667 0ZM18.3333 6.15327V4.16667C18.3333 3.50363 18.0699 2.86774 17.6011 2.3989C17.1323 1.93006 16.4964 1.66667 15.8333 1.66667H13.9778V6.15327H18.3333ZM6.09194 1.66667H4.16667C3.50363 1.66667 2.86774 1.93006 2.3989 2.3989C1.93006 2.86774 1.66667 3.50363 1.66667 4.16667V6.15327H6.09194V1.66667ZM1.66667 13.8435V15.8333C1.66667 16.4964 1.93006 17.1323 2.3989 17.6011C2.86774 18.0699 3.50363 18.3333 4.16667 18.3333H6.09194V13.8435H1.66667ZM13.9778 18.3333H15.8333C16.4964 18.3333 17.1323 18.0699 17.6011 17.6011C18.0699 17.1323 18.3333 16.4964 18.3333 15.8333V13.8435H13.9778V18.3333ZM6.09194 7.81994H1.66667V12.1768H6.09194V7.81994ZM13.9778 7.81994H18.3333V12.1768H13.9778V7.81994ZM12.3111 6.15327V1.66667H7.75861V6.15327H12.3111ZM7.75861 7.81994V12.1768H12.3111V7.81994H7.75861ZM7.75861 13.8435V18.3333H12.3111V13.8435H7.75861Z" fill="white"/>
</svg>
