<svg width="21" height="20" viewBox="0 0 21 20" fill="none" xmlns="http://www.w3.org/2000/svg">
<path d="M18 5H15.5C15.5 3.67392 14.9732 2.40215 14.0355 1.46447C13.0979 0.526784 11.8261 0 10.5 0C9.17392 0 7.90215 0.526784 6.96447 1.46447C6.02678 2.40215 5.5 3.67392 5.5 5H3C2.33696 5 1.70107 5.26339 1.23223 5.73223C0.763392 6.20107 0.5 6.83696 0.5 7.5L0.5 15.8333C0.501323 16.938 0.940735 17.997 1.72185 18.7782C2.50296 19.5593 3.562 19.9987 4.66667 20H16.3333C17.438 19.9987 18.497 19.5593 19.2782 18.7782C20.0593 17.997 20.4987 16.938 20.5 15.8333V7.5C20.5 6.83696 20.2366 6.20107 19.7678 5.73223C19.2989 5.26339 18.663 5 18 5ZM10.5 1.66667C11.3841 1.66667 12.2319 2.01786 12.857 2.64298C13.4821 3.2681 13.8333 4.11594 13.8333 5H7.16667C7.16667 4.11594 7.51786 3.2681 8.14298 2.64298C8.7681 2.01786 9.61594 1.66667 10.5 1.66667ZM18.8333 15.8333C18.8333 16.4964 18.5699 17.1323 18.1011 17.6011C17.6323 18.0699 16.9964 18.3333 16.3333 18.3333H4.66667C4.00363 18.3333 3.36774 18.0699 2.8989 17.6011C2.43006 17.1323 2.16667 16.4964 2.16667 15.8333V7.5C2.16667 7.27899 2.25446 7.06702 2.41074 6.91074C2.56702 6.75446 2.77899 6.66667 3 6.66667H5.5V8.33333C5.5 8.55435 5.5878 8.76631 5.74408 8.92259C5.90036 9.07887 6.11232 9.16667 6.33333 9.16667C6.55435 9.16667 6.76631 9.07887 6.92259 8.92259C7.07887 8.76631 7.16667 8.55435 7.16667 8.33333V6.66667H13.8333V8.33333C13.8333 8.55435 13.9211 8.76631 14.0774 8.92259C14.2337 9.07887 14.4457 9.16667 14.6667 9.16667C14.8877 9.16667 15.0996 9.07887 15.2559 8.92259C15.4122 8.76631 15.5 8.55435 15.5 8.33333V6.66667H18C18.221 6.66667 18.433 6.75446 18.5893 6.91074C18.7455 7.06702 18.8333 7.27899 18.8333 7.5V15.8333Z" fill="white"/>
</svg>
