<svg width="12" height="21" viewBox="0 0 12 21" fill="none" xmlns="http://www.w3.org/2000/svg">
<path d="M12 1.75199C11.9997 2.08377 11.8661 2.40186 11.6284 2.63633L3.14972 9.03693C2.95362 9.23061 2.79806 9.46056 2.69193 9.71365C2.5858 9.96673 2.53118 10.238 2.53118 10.5119C2.53118 10.7859 2.5858 11.0571 2.69193 11.3102C2.79806 11.5633 2.95362 11.7933 3.14972 11.9869L11.62 18.3792C11.8507 18.6152 11.9784 18.9313 11.9755 19.2595C11.9726 19.5876 11.8394 19.9014 11.6046 20.1335C11.3697 20.3655 11.052 20.4971 10.7199 20.5C10.3878 20.5028 10.0678 20.3767 9.82889 20.1487L1.35861 13.7615C0.488615 12.9003 0 11.7332 0 10.5165C0 9.2998 0.488615 8.13279 1.35861 7.27159L9.83733 0.866817C10.0145 0.691688 10.2402 0.572411 10.486 0.524077C10.7318 0.475744 10.9866 0.500527 11.2181 0.595291C11.4497 0.690055 11.6475 0.85054 11.7867 1.05644C11.9259 1.26234 12.0001 1.5044 12 1.75199Z" fill="white"/>
</svg>
